<mxfile host="app.diagrams.net" modified="2024-02-27T15:13:06.302Z" agent="Mozilla/5.0 (Windows NT 10.0; Win64; x64) AppleWebKit/537.36 (KHTML, like Gecko) Chrome/96.0.4664.110 Safari/537.36 OPR/82.0.4227.44" version="23.1.7" etag="CVLriy2zKgoqJkVKqUVm" type="github">
  <diagram name="PÃ¡gina-1" id="6GzirrDrFWm6B18kg1EE">
    <mxGraphModel>
      <root>
        <mxCell id="0" />
        <mxCell id="1" parent="0" />
      </root>
    </mxGraphModel>
  </diagram>
</mxfile>
